<?xml version="1.0" encoding="utf-8"?><!DOCTYPE svg PUBLIC "-//W3C//DTD SVG 1.1//EN" "http://www.w3.org/Graphics/SVG/1.1/DTD/svg11.dtd"><svg version="1.1" id="Contours" xmlns="http://www.w3.org/2000/svg" xmlns:xlink="http://www.w3.org/1999/xlink" x="0px" y="0px" width="2534.300781px" height="2534.300781px" viewBox="-0.000007 0.000011 2534.300781 2458.647949" enable-background="new 0 0 2534.300781 2534.300781" xml:space="preserve" stroke="black" fill="none" stroke-linecap='round' stroke-linejoin='round'><path class="selected"  fill="#000000" opacity="1.000000" stroke="none" 
 	d="
M1134.151434 1373.675462 C1133.489319 1372.700814 1134.171890 1371.276842 1135.220491 1370.739467 C1136.269092 1370.202093 1137.515835 1370.296079 1138.689228 1370.403244 C1141.133512 1370.626484 1143.577794 1370.849721 1146.022077 1371.072958 C1144.949609 1374.526831 1140.290804 1374.928707 1136.684054 1374.662659 C1135.747105 1374.593547 1134.679369 1374.452594 1134.151434 1373.675462 z"/><path class="selected"  fill="#000000" opacity="1.000000" stroke="none" 
 	d="
M1390.446168 1374.547549 C1389.603188 1374.534024 1388.645929 1374.467914 1388.114118 1373.813716 C1386.725513 1372.105547 1389.904297 1370.419312 1392.105041 1370.472102 C1393.701099 1370.510386 1395.297157 1370.548671 1396.893215 1370.586956 C1398.307085 1370.620870 1400.144017 1371.018812 1400.290877 1372.425443 C1400.462987 1374.073939 1398.185049 1374.671710 1396.527807 1374.645123 C1394.500593 1374.612597 1392.473381 1374.580073 1390.446168 1374.547549 z"/><path class="selected"  fill="#000000" opacity="1.000000" stroke="none" 
 	d="
M265.834147 2385.930817 C267.684210 2386.810346 269.392652 2387.986953 270.874041 2389.401800 C274.743170 2393.097135 276.961898 2398.460563 276.834110 2403.809333 C276.746871 2407.460859 275.595426 2411.080711 273.557046 2414.111595 C268.098926 2422.227316 255.969982 2424.914833 247.594511 2419.864342 C239.219040 2414.813850 235.935568 2402.832496 240.566098 2394.217731 C245.196627 2385.602966 257.001128 2381.731559 265.834147 2385.930817 z"/><path class="selected"  fill="#000000" opacity="1.000000" stroke="none" 
 	d="
M2291.390302 2413.726275 C2287.520106 2419.905770 2279.908606 2423.517204 2272.674304 2422.606469 C2264.114647 2421.528882 2256.797757 2414.031415 2255.929133 2405.448036 C2255.110494 2397.358596 2260.031450 2389.013682 2267.506609 2385.815055 C2274.981768 2382.616428 2284.415910 2384.818783 2289.702204 2390.996509 C2294.988499 2397.174235 2295.706019 2406.835424 2291.390304 2413.726274 z"/><path class="selected"  fill="#000000" opacity="1.000000" stroke="none" 
 	d="
M1897.808188 953.231909 C1850.094000 1015.467846 1787.551397 1072.473075 1710.322461 1086.098312 C1698.567347 1088.172226 1686.177017 1089.151247 1674.935025 1085.138586 C1663.693033 1081.125926 1653.920089 1071.017548 1653.565948 1059.086143 C1653.211807 1047.154739 1665.188985 1035.490107 1676.665284 1038.773150 C1705.256760 1046.952358 1735.597273 1034.434503 1760.993441 1018.961734 C1813.111758 987.208336 1856.719043 941.627207 1886.135603 888.155128 C1893.966319 873.920810 1900.907456 858.804181 1902.687189 842.655853 C1904.466922 826.507526 1900.412886 809.048555 1888.843236 797.643331 C1881.117408 790.027301 1870.799472 785.697529 1860.594056 782.017607 C1843.193287 775.743149 1825.300653 770.833312 1807.134522 767.348019 C1785.362828 763.170975 1760.090046 759.036562 1749.043970 739.815777 C1733.963869 713.575565 1756.903621 680.862988 1752.771891 650.881544 C1750.698951 635.839481 1741.940768 622.713832 1735.701734 608.870597 C1714.246457 561.265407 1722.851244 506.167872 1731.863492 454.734786 C1733.667760 444.437793 1723.660451 435.085977 1713.299966 433.691770 C1702.939482 432.297563 1692.733529 436.564028 1683.239397 440.939518 C1643.483967 459.261320 1605.390082 481.186548 1569.577358 506.358581 C1557.317816 514.975562 1539.220729 523.576477 1529.142821 512.486639 C1523.705777 506.503660 1523.934100 496.953266 1527.582618 489.738991 C1531.231136 482.524715 1537.624272 477.142870 1543.951540 472.110660 C1576.556523 446.179223 1612.052045 423.884927 1649.568834 405.773749 C1666.523105 397.589098 1684.215789 390.168075 1702.938074 388.190234 C1721.660358 386.212393 1741.743644 390.299164 1755.804166 402.818650 C1778.014220 422.594479 1779.460399 456.674124 1775.224217 486.109216 C1770.988034 515.544308 1762.819241 545.989917 1771.617058 574.397105 C1775.338687 586.413841 1781.927579 597.310816 1786.934330 608.851393 C1801.564215 642.573324 1802.044485 682.175820 1788.236693 716.242622 C1810.949182 720.799165 1833.693540 725.363440 1855.942747 731.812630 C1883.726772 739.866150 1911.982677 751.814865 1929.719713 774.666753 C1949.718940 800.433166 1952.771636 836.411714 1944.423754 867.942491 C1936.075871 899.473269 1917.653471 927.346737 1897.808188 953.231904 z"/><path class="selected"  fill="#000000" opacity="1.000000" stroke="none" 
 	d="
M1880.891101 332.432192 C1885.156219 342.363337 1878.345170 354.246355 1868.831664 359.375885 C1859.318158 364.505415 1848.000173 364.633460 1837.191897 364.639076 C1457.272895 364.836477 1077.353896 365.033877 697.434897 365.231277 C687.126318 365.236634 676.401821 365.150528 667.142791 360.618731 C657.883760 356.086935 650.623850 345.687001 653.188594 335.702567 C656.902980 321.242753 675.858440 318.329815 690.787690 318.337758 C1076.373279 318.542912 1461.958866 318.748069 1847.544453 318.953226 C1860.285285 318.960007 1875.863362 320.725327 1880.891098 332.432194 z"/><path class="selected"  fill="#000000" opacity="1.000000" stroke="none" 
 	d="
M2486.528888 1266.252802 C2477.846016 992.830280 2449.221362 719.820772 2395.577560 451.571616 C2370.515405 326.246755 2333.527278 191.714575 2231.362587 114.923897 C2130.472486 39.091246 1993.436664 39.909856 1867.263227 43.019059 C1466.180548 52.902663 1064.855521 52.949998 663.770523 43.161009 C538.307585 40.098924 402.121437 39.285281 301.626607 114.459174 C197.422458 192.407777 161.019019 330.136080 136.375484 457.913956 C84.396265 727.428622 54.539607 1001.175288 46.434182 1275.536905 C38.381960 1548.097658 59.731156 1843.139584 233.982440 2052.879166 C262.060220 1578.645217 130.255181 1098.381040 216.547186 631.219515 C252.189456 438.261927 334.160685 240.530221 498.029078 132.594351 C501.615748 130.231905 505.389056 127.858990 509.646584 127.294358 C522.775740 125.553178 531.774483 142.607670 527.874333 155.264498 C523.974183 167.921325 512.535787 176.474843 502.066838 184.587030 C350.535770 302.005480 281.805441 497.880616 253.530237 687.483540 C184.069978 1153.257992 312.427702 1627.586536 279.622695 2097.367761 C278.950118 2106.999334 277.753113 2117.610692 270.626881 2124.125013 C256.332965 2137.191551 233.990808 2123.191492 220.740222 2109.068021 C26.625489 1902.165854 -4.209490 1593.073710 0.423377 1309.405647 C4.842370 1038.832907 32.190744 768.687765 80.908831 502.500456 C101.669726 389.066462 127.361131 273.673770 188.858073 176.121671 C250.355014 78.569573 354.764333 0.836599 470.082511 0.776385 C964.605768 0.518209 1459.129001 0.260015 1953.652234 0.001822 C2028.874728 -0.037452 2106.194005 0.302673 2176.147548 27.959984 C2269.445577 64.846927 2339.043701 147.238362 2381.141414 238.304005 C2423.239127 329.369648 2441.066891 429.488025 2457.109035 528.522455 C2503.840110 817.011660 2538.858982 1108.520947 2533.817642 1400.727037 C2529.428416 1655.135305 2485.921636 1927.848595 2309.639903 2111.335876 C2298.231714 2123.210377 2281.027726 2135.441920 2266.837865 2127.087377 C2256.348866 2120.911786 2254.256517 2106.890145 2253.393270 2094.748818 C2217.128490 1584.694822 2374.803569 1063.088182 2254.146424 566.185712 C2224.712854 444.969403 2176.363699 323.733884 2086.227801 237.505997 C2053.921153 206.600063 2015.052535 178.200496 2001.644921 135.549210 C2012.562751 118.754810 2038.678261 129.286609 2054.210419 141.935832 C2249.568796 301.033613 2325.396506 566.045244 2342.932574 817.380648 C2371.648959 1228.957772 2273.655368 1641.216665 2298.437104 2053.049428 C2475.538981 1841.404565 2495.288195 1542.082273 2486.528888 1266.252802 z"/><path class="selected"  fill="#000000" opacity="1.000000" stroke="none" 
 	d="
M900.770347 992.840623 C781.788650 1039.392799 644.798336 1037.951153 526.822686 988.905306 C505.763676 1234.589404 484.704668 1480.273502 463.645660 1725.957599 C658.802458 1667.167110 868.372374 1709.224434 1067.741727 1751.584304 C1101.421530 1758.740228 1131.788746 1732.004740 1164.197430 1720.376601 C1218.106253 1701.034235 1276.642825 1724.225720 1332.666296 1736.127779 C1454.777162 1762.069965 1580.864125 1733.180741 1703.817324 1711.580480 C1826.770523 1689.980219 1958.966966 1676.816513 2071.622836 1730.600483 C2027.231459 1274.605388 1982.785933 817.110756 1996.963315 359.179402 C1998.768268 300.879171 1951.296220 250.216403 1896.868503 229.245031 C1842.440786 208.273659 1782.225501 210.514731 1723.952633 213.053961 C1641.323142 216.654537 1558.693653 220.255106 1476.064164 223.855676 C1459.729650 224.567452 1454.026121 199.073790 1465.129992 187.072665 C1476.233863 175.071539 1494.407208 173.677304 1510.747863 173.124159 C1609.673297 169.775452 1708.650409 167.953468 1807.632067 167.659073 C1850.143812 167.532632 1895.080816 168.336873 1931.380027 190.464494 C1986.879376 224.296318 2022.849268 305.789979 2087.114823 296.058155 C2105.547801 293.266821 2111.326041 324.691957 2096.420386 335.889619 C2081.514731 347.087281 2060.598364 343.202653 2042.481809 338.803035 C2027.314575 807.347028 2073.588237 1275.453887 2119.126983 1742.026218 C2120.523891 1756.338404 2121.744507 1771.609611 2115.008489 1784.314574 C2108.272471 1797.019537 2090.276274 1804.747062 2079.013080 1795.806678 C1985.908698 1721.903172 1853.180332 1735.350699 1735.560774 1752.549298 C1644.964058 1765.796557 1554.367341 1779.043816 1463.770625 1792.291074 C1445.248844 1794.999371 1425.599394 1798.211009 1411.550893 1810.581574 C1390.816740 1828.839264 1389.343328 1860.081980 1389.410730 1887.708848 C1389.681349 1998.629546 1389.951967 2109.550243 1390.222585 2220.470941 C1562.066425 2219.766855 1733.910264 2219.062768 1905.754104 2218.358682 C1916.112503 2218.316241 1927.333016 2218.552383 1935.510061 2224.911169 C1948.501912 2235.014134 1947.339560 2254.674998 1944.632084 2270.908533 C1936.176312 2321.607820 1924.795772 2371.819153 1910.565897 2421.209723 C1907.456215 2432.003142 1903.763264 2443.442441 1894.989059 2450.455381 C1885.183327 2458.292788 1871.559549 2458.648356 1859.006568 2458.647858 C1464.351030 2458.632189 1069.695493 2458.616521 675.039955 2458.600852 C662.022658 2458.600335 647.859234 2458.211597 637.785918 2449.966700 C629.149412 2442.897816 625.464286 2431.575351 622.346136 2420.859218 C607.977691 2371.479241 596.726311 2321.192494 588.681210 2270.397704 C586.104282 2254.127611 585.165791 2234.393387 598.343318 2224.508588 C606.366661 2218.490074 617.191165 2218.283845 627.220855 2218.327112 C799.209312 2219.069055 971.197770 2219.810998 1143.186227 2220.552940 C1142.854105 2082.428871 1142.521982 1944.304801 1142.189860 1806.180731 C1035.709074 1789.125218 929.228289 1772.069704 822.747503 1755.014191 C709.369243 1736.853877 585.501299 1720.463658 486.192227 1778.101622 C472.691487 1785.937312 459.150389 1795.295078 443.579225 1796.393649 C428.008061 1797.492220 410.256181 1785.885821 411.774510 1770.349969 C458.310528 1294.188941 504.903474 816.492065 490.868297 338.268348 C472.517163 342.587422 451.230282 346.319073 436.444228 334.623299 C421.658174 322.927525 429.232325 291.098880 447.593664 295.374361 C477.268850 302.284298 507.150631 283.952012 528.231017 261.952439 C549.311403 239.952866 565.972992 213.289882 590.814791 195.647634 C629.876845 167.906369 681.396191 167.445636 729.302907 168.052674 C825.814090 169.275592 922.325272 170.498509 1018.836454 171.721427 C1035.847161 171.936974 1054.802884 172.951974 1066.591955 185.216901 C1078.381026 197.481827 1072.724145 224.185692 1055.726445 223.486538 C966.700436 219.824695 877.674426 216.162852 788.648417 212.501010 C707.748580 209.173415 612.380310 212.619709 566.281980 279.183966 C539.006418 318.568850 537.536029 369.695034 537.040312 417.599936 C535.350175 580.930975 533.660036 744.262013 531.969897 907.593052 C584.092809 788.423283 650.735419 675.612360 729.954580 572.449594 C695.265751 569.744859 684.651849 518.059655 706.122523 490.680089 C727.593196 463.300523 764.852274 455.058024 799.043437 448.608616 C818.438252 444.950212 848.382938 452.056889 842.401389 470.865500 C839.900076 478.730745 831.463569 482.814617 823.859446 486.023349 C797.536710 497.130816 771.213982 508.238287 744.891254 519.345758 C769.069626 529.445069 778.063489 560.828285 771.880641 586.291243 C765.697794 611.754201 748.374145 632.780463 732.240002 653.426993 C666.398103 737.683446 612.501645 831.260455 572.661577 930.492878 C569.179474 939.166001 565.804871 949.014234 569.547949 957.577964 C574.376577 968.625301 588.255870 971.849940 600.217340 973.360742 C694.960306 985.327313 792.054908 978.370397 884.123977 953.018575 C899.581741 948.762177 921.647556 947.351110 926.088804 962.756781 C930.092659 976.645271 914.230849 987.574139 900.770354 992.840631 M667.042471 2412.424766 C1059.292662 2412.459813 1451.542853 2412.494861 1843.793044 2412.529909 C1854.700323 2412.530883 1868.700788 2410.177384 1870.905440 2399.495238 C1880.405448 2353.464532 1892.235871 2307.914883 1906.336244 2263.079020 C1480.222340 2268.831579 1054.031105 2268.855713 627.916552 2263.151413 C640.958525 2312.909197 654.000498 2362.666981 667.042471 2412.424766 M1324.917084 1845.523974 C1311.475441 1848.948841 1296.500499 1845.691274 1285.696256 1836.992088 C1282.143489 1834.131529 1277.351527 1833.486652 1272.822185 1832.948121 C1244.583466 1829.590625 1216.344747 1826.233120 1188.106029 1822.875616 C1188.055227 1953.714546 1188.004424 2084.553476 1187.953621 2215.392406 C1187.952909 2217.225613 1188.006768 2219.220189 1189.167074 2220.639463 C1190.665716 2222.472583 1193.365704 2222.620972 1195.733457 2222.620430 C1245.092102 2222.609122 1294.450746 2222.597816 1343.809391 2222.586510 C1343.908447 2096.254400 1344.007503 1969.922291 1344.106560 1843.590181 C1338.109269 1840.898923 1331.287024 1843.900942 1324.917084 1845.523973 z"/></svg>